<svg width="2538" height="603" viewBox="0 0 2538 603" fill="none" xmlns="http://www.w3.org/2000/svg">
<rect width="2538" height="603" fill="#F9FAFB"/>
<mask id="mask0_101_64" style="mask-type:alpha" maskUnits="userSpaceOnUse" x="288" y="72" width="460" height="460">
<circle cx="518" cy="302" r="230" fill="#C4C4C4"/>
</mask>
<g mask="url(#mask0_101_64)">
<path d="M299.027 648.457C296.846 650.286 294.612 653.39 294.847 656.605C295.224 662.127 301.459 662.861 307.009 662.655C389.433 658.108 444.093 655.635 444.781 655.291C642.853 644.997 682.522 645.055 722.049 621.32C731.755 615.368 738.574 608.951 742.323 602.202C746.842 593.466 746.072 584.115 740.246 577.209C736.379 572.585 730.56 569.449 724.601 566.972C723.516 566.057 723.538 566.028 722.187 566.026C705.975 559.739 688.645 555.658 671.569 553.198C682.771 540.348 687.56 521.225 683.75 503.785C683.28 501.654 680.014 502.326 680.484 504.504C684.402 522.466 678.87 542.524 664.743 555.424C655.018 565.285 640.618 573.037 627.815 578.816C596.09 596.128 588.945 602.066 567.818 612.506C567.727 612.552 567.596 612.643 567.492 612.735C565.911 613.397 535.241 628.507 492.185 641.436C469.816 643.273 447.498 645.658 425.171 647.968C394.578 615.871 395.272 559.246 446.295 513.513C490.726 472.961 552.383 458.237 596.706 415.969C596.976 416.95 596.654 415.88 598.32 420.809C605.007 440.612 609.986 450.322 627.828 457.916C629.821 458.788 631.201 455.722 629.134 454.832C606.12 445.077 606.804 430.818 597.515 408.978C623.126 385.183 609.836 366.547 606.98 350.744C605.388 342.491 606.925 331.964 614.308 327.829C624.45 323.251 639.042 329.569 645.371 300.209C656.02 242.682 657.507 148.623 654.568 96.633C653.327 74.6065 651.772 47.1895 631.355 34.4937C629.605 33.4156 627.724 32.331 625.843 31.2528C625.046 30.802 624.027 31.0568 623.557 31.8736C622.408 33.8764 624.93 34.4526 629.592 37.3361C648.533 49.117 650.035 75.567 651.237 96.8224C653.989 145.762 652.459 267.723 640.468 305.337C631.872 316.789 617.449 309.352 613.903 295.769C611.544 286.872 611.528 293.25 632.253 116.415C634.464 97.9545 636.126 77.4317 625.088 62.4654C615.788 88.293 617.042 116.429 617.068 143.879C616.982 271.239 593.557 313.856 604.57 336.118C595.968 364.93 635.377 383.632 577.041 420.025C480.848 479.069 397.886 470.227 394.973 470.625C388.337 470.477 382.24 468.744 376.594 465.554C374.967 456.552 376.275 446.959 380.486 438.858C384.296 431.507 386.884 423.619 390.842 416.26C414.802 372.81 450.929 370.735 480.337 353.758C493.729 346.202 493.337 336.913 483.055 330.496C452.651 312.336 415.322 328.758 418.425 318.712C418.825 317.417 420.432 317.035 421.768 316.808C433.149 314.875 486.05 289.746 494.13 280.411C514.778 256.529 461.947 242.906 429.86 247.661C418.003 249.38 408.19 252.42 398.699 246.653C399.283 245.312 398.591 246.762 400.694 242.206C411.2 221.254 426.266 200.131 426.376 198.212C426.78 197.597 427.153 196.966 427.548 196.345C436.277 192.014 442.502 185.235 450.948 183.051C455.218 181.944 459.792 183.954 463.229 181.097C468.385 176.81 469.509 169.444 470.981 163.105C473.622 151.09 482.453 127.875 493.74 123.028C504.339 118.208 519.835 124.718 525.52 147.254C531.819 170.164 537.534 151.329 590.358 140.586C607.335 137.454 613.566 129.814 602.612 114.165C572.35 72.9109 529.138 58.4225 479.433 84.3554C467.014 90.8993 455.59 99.2 444.48 107.894C453.951 95.4529 455.301 86.4368 468.202 70.5423C498.923 31.7991 544.947 14.1742 590.325 22.3077C592.466 22.7478 593.124 19.4127 590.926 19.0145C545.201 10.7831 497.541 28.1311 465.603 68.4514C451.55 85.7464 452.294 93.0218 437.779 111.152L437.766 111.145C418.465 135.336 437.589 151.378 435.676 171.305C434.606 181.467 423.072 196.292 423.005 197.63C395.867 242.728 389.317 248.316 390.518 279.94C391.094 295.474 390.444 298.535 387.775 308.899C378.838 343.174 384.711 393.238 369.67 438.222C366.601 447.4 363.565 454.032 366.849 459.961C368.082 463.815 371.005 465.893 373.994 467.939C382.232 473.304 391.803 473.521 395.035 473.97C406.741 497.963 388.291 512.561 371.736 576.758C332.448 577.286 289.912 577.98 255.881 591.172C223.216 603.827 227.07 622.282 257.789 630.481C279.13 636.208 303.953 632.917 305.729 638.512C306.356 640.537 303.848 644.262 299.027 648.457ZM569.66 615.329C584.05 608.131 609.198 592.772 629.513 581.717C649.913 572.738 660.17 564.611 668.736 556.129C685.14 558.323 702.241 562.28 718.18 568.072C726.099 580.903 730.099 597.567 722.716 610.613C714.55 625.039 696.182 629.569 679.759 631.796C623.2 639.47 566.654 636.326 506.998 640.34C535.343 630.852 568.378 616.669 569.66 615.329ZM370.823 580.121C367.587 593.108 363.382 607.622 367.633 621.399C371 633.913 381.42 644.877 395.299 650.917C380.447 652.223 365.574 653.308 350.674 653.853C344.809 654.068 336.436 655.859 331.116 652.992C326.405 650.453 322.367 644.906 321.29 639.738C320.783 637.322 320.767 634.792 319.926 632.473C317.684 626.295 310.438 623.552 303.9 622.917C297.362 622.283 290.504 622.942 284.466 620.351C275.188 616.368 270.482 605.689 269.692 595.619C269.529 593.537 269.463 591.833 268.066 590.587C298.847 581.259 336.517 580.596 370.823 580.121Z" fill="#2E60D6"/>
<path d="M645.672 461.118C644.81 460.797 643.83 461.203 643.503 462.065C641.731 466.566 657.576 464.406 671.915 485.072C673.174 486.885 675.917 484.99 674.658 483.164C666.881 471.92 657.437 465.702 645.672 461.118Z" fill="#2E60D6"/>
<path d="M515.587 383.404C504.016 370.057 474.947 378.446 488.316 389.395C499.541 398.587 525.781 395.152 515.587 383.404Z" fill="#2E60D6"/>
<path d="M475.628 407.073C482.124 412.395 497.151 410.386 491.29 403.633C484.64 395.967 467.951 400.785 475.628 407.073Z" fill="#2E60D6"/>
</g>
<path d="M964.44 322H918.12C917.48 321.04 917.16 319.76 917.16 318.16C917.16 316.4 917.72 314.8 918.84 313.36L934.92 311.44V188.32L879.48 302.8C877.88 303.12 876.12 303.28 874.2 303.28C872.28 303.28 870.52 303.12 868.92 302.8L813.48 191.2V310.96H827.4C829.96 310.96 831.24 312.08 831.24 314.32C831.24 315.44 830.84 317.36 830.04 320.08L829.56 322H784.2C783.56 321.04 783.24 319.76 783.24 318.16C783.24 316.4 783.8 314.8 784.92 313.36L801 311.44V178.24H787.08C784.52 178.24 783.24 177.12 783.24 174.88C783.24 173.76 783.64 171.84 784.44 169.12L784.92 167.2H815.88L874.92 285.76L932.52 167.2H965.16C965.8 168.16 966.12 169.44 966.12 171.04C966.12 172.8 965.56 174.4 964.44 175.84L948.36 177.76V310.96H962.28C964.84 310.96 966.12 312.08 966.12 314.32C966.12 315.44 965.72 317.36 964.92 320.08L964.44 322ZM1044.18 313.84C1052.5 313.84 1059.78 311.68 1066.02 307.36C1072.42 303.04 1077.3 296.96 1080.66 289.12C1084.18 281.28 1085.94 272.24 1085.94 262C1085.94 251.76 1084.18 242.72 1080.66 234.88C1077.3 227.04 1072.42 220.96 1066.02 216.64C1059.78 212.32 1052.5 210.16 1044.18 210.16C1035.86 210.16 1028.5 212.32 1022.1 216.64C1015.86 220.96 1010.98 227.04 1007.46 234.88C1004.1 242.72 1002.42 251.76 1002.42 262C1002.42 272.24 1004.1 281.28 1007.46 289.12C1010.98 296.96 1015.86 303.04 1022.1 307.36C1028.34 311.68 1035.7 313.84 1044.18 313.84ZM1044.18 324.4C1032.98 324.4 1023.22 321.84 1014.9 316.72C1006.74 311.44 1000.34 304.16 995.702 294.88C991.062 285.44 988.742 274.48 988.742 262C988.742 249.52 991.062 238.64 995.702 229.36C1000.34 219.92 1006.74 212.64 1014.9 207.52C1023.22 202.24 1032.98 199.6 1044.18 199.6C1055.38 199.6 1065.06 202.24 1073.22 207.52C1081.54 212.64 1088.02 219.92 1092.66 229.36C1097.3 238.64 1099.62 249.52 1099.62 262C1099.62 274.48 1097.3 285.44 1092.66 294.88C1088.02 304.16 1081.54 311.44 1073.22 316.72C1065.06 321.84 1055.38 324.4 1044.18 324.4ZM1228.95 318.64L1205.19 323.2C1202.47 321.76 1200.23 320 1198.47 317.92L1199.67 300.64C1194.55 308.16 1188.23 314 1180.71 318.16C1173.35 322.32 1165.19 324.4 1156.23 324.4C1145.19 324.4 1136.23 321.28 1129.35 315.04C1122.63 308.8 1119.27 300.72 1119.27 290.8C1119.27 279.44 1123.75 270.64 1132.71 264.4C1141.83 258 1154.63 254.8 1171.11 254.8C1174.79 254.8 1179.03 254.96 1183.83 255.28C1188.63 255.6 1193.67 256.16 1198.95 256.96V247.36C1198.95 222.72 1187.83 210.4 1165.59 210.4C1159.83 210.4 1153.67 211.44 1147.11 213.52C1140.71 215.44 1134.79 218.24 1129.35 221.92C1128.23 220.96 1127.19 219.6 1126.23 217.84C1125.27 215.92 1124.79 214.32 1124.79 213.04C1131.03 208.72 1137.67 205.44 1144.71 203.2C1151.91 200.8 1158.87 199.6 1165.59 199.6C1196.15 199.6 1211.43 215.52 1211.43 247.36V310.72H1229.67C1230.15 311.84 1230.39 312.96 1230.39 314.08C1230.39 315.52 1229.91 317.04 1228.95 318.64ZM1198.95 276.88V267.28C1193.83 266.64 1188.87 266.16 1184.07 265.84C1179.27 265.36 1174.95 265.12 1171.11 265.12C1158.47 265.12 1148.87 267.28 1142.31 271.6C1135.75 275.76 1132.47 282 1132.47 290.32C1132.47 297.36 1134.71 303.04 1139.19 307.36C1143.83 311.68 1149.91 313.84 1157.43 313.84C1164.47 313.84 1171.11 312.08 1177.35 308.56C1183.75 305.04 1188.95 300.48 1192.95 294.88C1196.95 289.28 1198.95 283.28 1198.95 276.88ZM1294.81 322H1243.69C1243.21 320.72 1242.97 319.6 1242.97 318.64C1242.97 317.36 1243.45 315.84 1244.41 314.08L1263.13 312.16V213.28H1243.69C1243.21 212.16 1242.97 211.04 1242.97 209.92C1242.97 208.48 1243.45 206.96 1244.41 205.36L1269.37 200.8C1272.09 202.24 1274.33 204 1276.09 206.08V311.68H1292.41C1294.97 311.68 1296.25 312.8 1296.25 315.04C1296.25 316 1295.93 317.68 1295.29 320.08L1294.81 322ZM1276.81 170.32C1276.81 173.36 1275.85 175.84 1273.93 177.76C1272.01 179.52 1269.37 180.4 1266.01 180.4C1262.65 180.4 1260.01 179.52 1258.09 177.76C1256.17 175.84 1255.21 173.36 1255.21 170.32C1255.21 167.28 1256.17 164.88 1258.09 163.12C1260.01 161.2 1262.65 160.24 1266.01 160.24C1269.37 160.24 1272.01 161.2 1273.93 163.12C1275.85 164.88 1276.81 167.28 1276.81 170.32ZM1357.01 322.72L1313.33 212.32H1299.41C1296.85 212.32 1295.57 211.2 1295.57 208.96C1295.57 208 1295.89 206.32 1296.53 203.92L1297.01 202H1343.81C1344.29 203.28 1344.53 204.4 1344.53 205.36C1344.53 206.64 1344.05 208.16 1343.09 209.92L1326.77 211.84L1363.49 307.6L1400.93 212.32H1387.01C1384.45 212.32 1383.17 211.2 1383.17 208.96C1383.17 208 1383.49 206.32 1384.13 203.92L1384.61 202H1430.69C1431.17 203.28 1431.41 204.4 1431.41 205.36C1431.41 206.64 1430.93 208.16 1429.97 209.92L1413.65 211.84L1371.17 315.52C1366.85 325.92 1361.97 334.96 1356.53 342.64C1351.25 350.48 1344.77 356.64 1337.09 361.12C1329.57 365.76 1320.28 368.4 1309.25 369.04C1308.61 367.92 1308.13 366.72 1307.81 365.44C1307.65 364.16 1307.57 363.04 1307.57 362.08C1307.57 360.96 1307.65 360 1307.81 359.2C1320.61 357.44 1330.93 353.04 1338.77 346C1346.77 338.96 1352.85 331.2 1357.01 322.72Z" fill="#2E60D6"/>
<path d="M794.84 469H775.4C775.187 468.68 775.08 468.253 775.08 467.72C775.08 467.133 775.267 466.6 775.64 466.12L781 465.48V421.08H776.36C775.507 421.08 775.08 420.707 775.08 419.96C775.08 419.587 775.213 418.947 775.48 418.04L775.64 417.4H795.56C798.92 417.4 801.747 417.88 804.04 418.84C806.387 419.8 808.253 421.053 809.64 422.6C811.08 424.147 812.12 425.853 812.76 427.72C813.453 429.533 813.8 431.32 813.8 433.08C813.8 434.84 813.453 436.653 812.76 438.52C812.12 440.333 811.08 442.013 809.64 443.56C808.253 445.107 806.387 446.36 804.04 447.32C801.747 448.28 798.92 448.76 795.56 448.76H785.48V465.32H794.12C794.973 465.32 795.4 465.693 795.4 466.44C795.4 466.813 795.267 467.453 795 468.36L794.84 469ZM785.48 445.08H795.56C799.72 445.08 803 444.013 805.4 441.88C807.853 439.693 809.08 436.76 809.08 433.08C809.08 429.4 807.853 426.493 805.4 424.36C803 422.173 799.72 421.08 795.56 421.08H785.48V445.08ZM838.473 469H819.833C819.673 468.573 819.593 468.2 819.593 467.88C819.593 467.453 819.753 466.947 820.073 466.36L825.513 465.72V432.76H819.433C819.273 432.387 819.193 432.013 819.193 431.64C819.193 431.16 819.353 430.653 819.673 430.12L827.593 428.6C828.499 429.08 829.246 429.667 829.833 430.36L828.793 440.12C830.233 436.6 832.233 433.8 834.793 431.72C837.353 429.587 840.153 428.52 843.193 428.52C843.779 428.52 844.446 428.573 845.193 428.68C845.993 428.733 846.713 428.84 847.353 429C847.939 429.693 848.446 430.493 848.873 431.4L849.033 440.12C848.659 440.28 848.259 440.36 847.833 440.36C847.299 440.36 846.793 440.2 846.313 439.88L844.553 432.12C844.339 432.067 844.126 432.04 843.913 432.04C843.753 432.04 843.593 432.04 843.433 432.04C841.139 432.04 838.953 432.84 836.872 434.44C834.793 435.987 833.086 438.04 831.753 440.6C830.473 443.107 829.833 445.747 829.833 448.52V465.56H837.673C838.526 465.56 838.953 465.933 838.953 466.68C838.953 467 838.846 467.56 838.633 468.36L838.473 469ZM872.373 466.28C875.146 466.28 877.573 465.56 879.653 464.12C881.786 462.68 883.413 460.653 884.533 458.04C885.706 455.427 886.293 452.413 886.293 449C886.293 445.587 885.706 442.573 884.533 439.96C883.413 437.347 881.786 435.32 879.653 433.88C877.573 432.44 875.146 431.72 872.373 431.72C869.6 431.72 867.146 432.44 865.013 433.88C862.933 435.32 861.306 437.347 860.133 439.96C859.013 442.573 858.453 445.587 858.453 449C858.453 452.413 859.013 455.427 860.133 458.04C861.306 460.653 862.933 462.68 865.013 464.12C867.093 465.56 869.546 466.28 872.373 466.28ZM872.373 469.8C868.64 469.8 865.386 468.947 862.613 467.24C859.893 465.48 857.76 463.053 856.213 459.96C854.666 456.813 853.893 453.16 853.893 449C853.893 444.84 854.666 441.213 856.213 438.12C857.76 434.973 859.893 432.547 862.613 430.84C865.386 429.08 868.64 428.2 872.373 428.2C876.106 428.2 879.333 429.08 882.053 430.84C884.826 432.547 886.986 434.973 888.533 438.12C890.08 441.213 890.853 444.84 890.853 449C890.853 453.16 890.08 456.813 888.533 459.96C886.986 463.053 884.826 465.48 882.053 467.24C879.333 468.947 876.106 469.8 872.373 469.8ZM901.561 457.16V432.52H895.481C895.321 432.093 895.241 431.72 895.241 431.4C895.241 430.867 895.401 430.333 895.721 429.8L901.561 429.08L902.841 420.68C903.268 420.573 903.775 420.52 904.361 420.52C904.735 420.52 905.241 420.573 905.881 420.68V429H916.921C917.775 429 918.201 429.373 918.201 430.12C918.201 430.44 918.095 431 917.881 431.8L917.721 432.52H905.881V455.56C905.881 458.067 906.015 460.093 906.281 461.64C906.601 463.133 907.215 464.227 908.121 464.92C909.081 465.613 910.548 465.96 912.521 465.96C913.481 465.96 914.548 465.88 915.721 465.72C916.948 465.56 918.148 465.32 919.321 465C919.801 465.853 920.095 466.867 920.201 468.04C919.081 468.573 917.721 469 916.121 469.32C914.521 469.64 912.921 469.8 911.321 469.8C908.175 469.8 905.748 468.893 904.041 467.08C902.388 465.267 901.561 461.96 901.561 457.16ZM954.939 448.12H928.059V449C928.059 454.173 929.392 458.307 932.059 461.4C934.779 464.44 938.405 465.96 942.939 465.96C945.019 465.96 947.152 465.667 949.339 465.08C951.579 464.493 953.392 463.827 954.779 463.08C955.205 463.507 955.525 463.987 955.739 464.52C955.952 465 956.085 465.507 956.139 466.04C951.712 468.547 947.072 469.8 942.219 469.8C938.485 469.8 935.232 468.947 932.459 467.24C929.685 465.48 927.525 463.053 925.979 459.96C924.432 456.813 923.659 453.16 923.659 449C923.659 444.787 924.379 441.133 925.819 438.04C927.312 434.893 929.419 432.467 932.139 430.76C934.859 429.053 938.059 428.2 941.739 428.2C951.552 428.2 956.459 434.04 956.459 445.72C956.032 446.627 955.525 447.427 954.939 448.12ZM928.379 444.68H952.219C952.219 436.04 948.725 431.72 941.739 431.72C938.219 431.72 935.259 432.893 932.859 435.24C930.512 437.587 929.019 440.733 928.379 444.68ZM991.743 441.64L989.903 433.16C987.609 432.253 984.969 431.8 981.983 431.8C979.209 431.8 976.783 432.547 974.703 434.04C972.623 435.48 970.996 437.48 969.823 440.04C968.649 442.6 968.063 445.587 968.063 449C968.063 454.227 969.396 458.36 972.063 461.4C974.729 464.44 978.303 465.96 982.783 465.96C984.649 465.96 986.596 465.747 988.623 465.32C990.649 464.893 992.356 464.307 993.743 463.56C994.116 463.987 994.409 464.467 994.623 465C994.836 465.48 994.996 465.987 995.103 466.52C993.183 467.533 991.103 468.333 988.863 468.92C986.623 469.507 984.356 469.8 982.063 469.8C978.329 469.8 975.076 468.947 972.303 467.24C969.529 465.48 967.369 463.053 965.823 459.96C964.276 456.813 963.503 453.16 963.503 449C963.503 444.84 964.276 441.213 965.823 438.12C967.369 434.973 969.503 432.547 972.223 430.84C974.996 429.08 978.249 428.2 981.983 428.2C983.796 428.2 985.716 428.413 987.743 428.84C989.769 429.213 991.449 429.72 992.783 430.36C993.369 431.053 993.876 431.853 994.303 432.76L994.463 441.88C994.036 442.04 993.636 442.12 993.263 442.12C992.729 442.12 992.223 441.96 991.743 441.64ZM1006.41 457.16V432.52H1000.33C1000.17 432.093 1000.09 431.72 1000.09 431.4C1000.09 430.867 1000.25 430.333 1000.57 429.8L1006.41 429.08L1007.69 420.68C1008.11 420.573 1008.62 420.52 1009.21 420.52C1009.58 420.52 1010.09 420.573 1010.73 420.68V429H1021.77C1022.62 429 1023.05 429.373 1023.05 430.12C1023.05 430.44 1022.94 431 1022.73 431.8L1022.57 432.52H1010.73V455.56C1010.73 458.067 1010.86 460.093 1011.13 461.64C1011.45 463.133 1012.06 464.227 1012.97 464.92C1013.93 465.613 1015.39 465.96 1017.37 465.96C1018.33 465.96 1019.39 465.88 1020.57 465.72C1021.79 465.56 1022.99 465.32 1024.17 465C1024.65 465.853 1024.94 466.867 1025.05 468.04C1023.93 468.573 1022.57 469 1020.97 469.32C1019.37 469.64 1017.77 469.8 1016.17 469.8C1013.02 469.8 1010.59 468.893 1008.89 467.08C1007.23 465.267 1006.41 461.96 1006.41 457.16ZM1091.89 469.16L1080.29 436.52L1068.69 469.16C1068.27 469.267 1067.71 469.32 1067.01 469.32C1066.32 469.32 1065.76 469.267 1065.33 469.16L1053.49 432.44H1048.85C1048 432.44 1047.57 432.067 1047.57 431.32C1047.57 431 1047.68 430.44 1047.89 429.64L1048.05 429H1063.73C1063.89 429.427 1063.97 429.8 1063.97 430.12C1063.97 430.547 1063.81 431.053 1063.49 431.64L1058.05 432.28L1067.25 462.52L1078.85 429C1079.28 428.893 1079.84 428.84 1080.53 428.84C1081.23 428.84 1081.79 428.893 1082.21 429L1093.73 462.12L1102.93 432.44H1098.29C1097.44 432.44 1097.01 432.067 1097.01 431.32C1097.01 431 1097.12 430.44 1097.33 429.64L1097.49 429H1112.85C1113.01 429.427 1113.09 429.8 1113.09 430.12C1113.09 430.547 1112.93 431.053 1112.61 431.64L1107.17 432.28L1095.25 469.16C1094.83 469.267 1094.27 469.32 1093.57 469.32C1092.88 469.32 1092.32 469.267 1091.89 469.16ZM1159.05 469H1143.61C1143.45 468.573 1143.37 468.2 1143.37 467.88C1143.37 467.453 1143.53 466.947 1143.85 466.36L1149.29 465.72V443C1149.29 435.48 1146.11 431.72 1139.77 431.72C1137.26 431.72 1134.94 432.467 1132.81 433.96C1130.73 435.4 1129.05 437.347 1127.77 439.8C1126.49 442.2 1125.85 444.84 1125.85 447.72V465.56H1130.49C1131.34 465.56 1131.77 465.933 1131.77 466.68C1131.77 467 1131.66 467.56 1131.45 468.36L1131.29 469H1115.85C1115.69 468.573 1115.61 468.2 1115.61 467.88C1115.61 467.453 1115.77 466.947 1116.09 466.36L1121.53 465.72V419.16H1115.05C1114.89 418.787 1114.81 418.413 1114.81 418.04C1114.81 417.56 1114.97 417.053 1115.29 416.52L1123.61 415C1124.51 415.48 1125.26 416.067 1125.85 416.76V437.24C1127.18 434.733 1129.05 432.6 1131.45 430.84C1133.85 429.08 1136.86 428.2 1140.49 428.2C1144.75 428.2 1148.01 429.48 1150.25 432.04C1152.49 434.547 1153.61 438.2 1153.61 443V465.56H1158.25C1159.1 465.56 1159.53 465.933 1159.53 466.68C1159.53 467 1159.42 467.56 1159.21 468.36L1159.05 469ZM1201.31 467.88L1193.39 469.4C1192.48 468.92 1191.73 468.333 1191.15 467.64L1191.55 461.88C1189.84 464.387 1187.73 466.333 1185.23 467.72C1182.77 469.107 1180.05 469.8 1177.07 469.8C1173.39 469.8 1170.4 468.76 1168.11 466.68C1165.87 464.6 1164.75 461.907 1164.75 458.6C1164.75 454.813 1166.24 451.88 1169.23 449.8C1172.27 447.667 1176.53 446.6 1182.03 446.6C1183.25 446.6 1184.67 446.653 1186.27 446.76C1187.87 446.867 1189.55 447.053 1191.31 447.32V444.12C1191.31 435.907 1187.6 431.8 1180.19 431.8C1178.27 431.8 1176.21 432.147 1174.03 432.84C1171.89 433.48 1169.92 434.413 1168.11 435.64C1167.73 435.32 1167.39 434.867 1167.07 434.28C1166.75 433.64 1166.59 433.107 1166.59 432.68C1168.67 431.24 1170.88 430.147 1173.23 429.4C1175.63 428.6 1177.95 428.2 1180.19 428.2C1190.37 428.2 1195.47 433.507 1195.47 444.12V465.24H1201.55C1201.71 465.613 1201.79 465.987 1201.79 466.36C1201.79 466.84 1201.63 467.347 1201.31 467.88ZM1191.31 453.96V450.76C1189.6 450.547 1187.95 450.387 1186.35 450.28C1184.75 450.12 1183.31 450.04 1182.03 450.04C1177.81 450.04 1174.61 450.76 1172.43 452.2C1170.24 453.587 1169.15 455.667 1169.15 458.44C1169.15 460.787 1169.89 462.68 1171.39 464.12C1172.93 465.56 1174.96 466.28 1177.47 466.28C1179.81 466.28 1182.03 465.693 1184.11 464.52C1186.24 463.347 1187.97 461.827 1189.31 459.96C1190.64 458.093 1191.31 456.093 1191.31 453.96ZM1210.78 457.16V432.52H1204.7C1204.54 432.093 1204.46 431.72 1204.46 431.4C1204.46 430.867 1204.62 430.333 1204.94 429.8L1210.78 429.08L1212.06 420.68C1212.49 420.573 1212.99 420.52 1213.58 420.52C1213.95 420.52 1214.46 420.573 1215.1 420.68V429H1226.14C1226.99 429 1227.42 429.373 1227.42 430.12C1227.42 430.44 1227.31 431 1227.1 431.8L1226.94 432.52H1215.1V455.56C1215.1 458.067 1215.23 460.093 1215.5 461.64C1215.82 463.133 1216.43 464.227 1217.34 464.92C1218.3 465.613 1219.77 465.96 1221.74 465.96C1222.7 465.96 1223.77 465.88 1224.94 465.72C1226.17 465.56 1227.37 465.32 1228.54 465C1229.02 465.853 1229.31 466.867 1229.42 468.04C1228.3 468.573 1226.94 469 1225.34 469.32C1223.74 469.64 1222.14 469.8 1220.54 469.8C1217.39 469.8 1214.97 468.893 1213.26 467.08C1211.61 465.267 1210.78 461.96 1210.78 457.16ZM1319.07 469H1303.63C1303.47 468.573 1303.39 468.2 1303.39 467.88C1303.39 467.453 1303.55 466.947 1303.87 466.36L1309.31 465.72V443C1309.31 435.48 1306.64 431.72 1301.31 431.72C1299.02 431.72 1296.96 432.413 1295.15 433.8C1293.34 435.133 1291.9 437.027 1290.83 439.48C1289.82 441.88 1289.31 444.627 1289.31 447.72V465.56H1293.95C1294.8 465.56 1295.23 465.933 1295.23 466.68C1295.23 467 1295.12 467.56 1294.91 468.36L1294.75 469H1279.31C1279.15 468.573 1279.07 468.2 1279.07 467.88C1279.07 467.453 1279.23 466.947 1279.55 466.36L1284.99 465.72V443C1284.99 435.48 1282.32 431.72 1276.99 431.72C1274.7 431.72 1272.64 432.413 1270.83 433.8C1269.02 435.133 1267.58 437.027 1266.51 439.48C1265.5 441.88 1264.99 444.627 1264.99 447.72V465.56H1269.63C1270.48 465.56 1270.91 465.933 1270.91 466.68C1270.91 467 1270.8 467.56 1270.59 468.36L1270.43 469H1254.99C1254.83 468.573 1254.75 468.2 1254.75 467.88C1254.75 467.453 1254.91 466.947 1255.23 466.36L1260.67 465.72V432.76H1254.59C1254.43 432.387 1254.35 432.013 1254.35 431.64C1254.35 431.16 1254.51 430.653 1254.83 430.12L1262.75 428.6C1263.66 429.08 1264.4 429.667 1264.99 430.36L1264.51 437.08C1267.34 431.16 1271.68 428.2 1277.55 428.2C1283.74 428.2 1287.28 431.347 1288.19 437.64C1291.12 431.347 1295.66 428.2 1301.79 428.2C1305.63 428.2 1308.56 429.48 1310.59 432.04C1312.62 434.547 1313.63 438.2 1313.63 443V465.56H1318.27C1319.12 465.56 1319.55 465.933 1319.55 466.68C1319.55 467 1319.44 467.56 1319.23 468.36L1319.07 469ZM1361.31 467.88L1353.39 469.4C1352.48 468.92 1351.73 468.333 1351.15 467.64L1351.55 461.88C1349.84 464.387 1347.73 466.333 1345.23 467.72C1342.77 469.107 1340.05 469.8 1337.07 469.8C1333.39 469.8 1330.4 468.76 1328.11 466.68C1325.87 464.6 1324.75 461.907 1324.75 458.6C1324.75 454.813 1326.24 451.88 1329.23 449.8C1332.27 447.667 1336.53 446.6 1342.03 446.6C1343.25 446.6 1344.67 446.653 1346.27 446.76C1347.87 446.867 1349.55 447.053 1351.31 447.32V444.12C1351.31 435.907 1347.6 431.8 1340.19 431.8C1338.27 431.8 1336.21 432.147 1334.03 432.84C1331.89 433.48 1329.92 434.413 1328.11 435.64C1327.73 435.32 1327.39 434.867 1327.07 434.28C1326.75 433.64 1326.59 433.107 1326.59 432.68C1328.67 431.24 1330.88 430.147 1333.23 429.4C1335.63 428.6 1337.95 428.2 1340.19 428.2C1350.37 428.2 1355.47 433.507 1355.47 444.12V465.24H1361.55C1361.71 465.613 1361.79 465.987 1361.79 466.36C1361.79 466.84 1361.63 467.347 1361.31 467.88ZM1351.31 453.96V450.76C1349.6 450.547 1347.95 450.387 1346.35 450.28C1344.75 450.12 1343.31 450.04 1342.03 450.04C1337.81 450.04 1334.61 450.76 1332.43 452.2C1330.24 453.587 1329.15 455.667 1329.15 458.44C1329.15 460.787 1329.89 462.68 1331.39 464.12C1332.93 465.56 1334.96 466.28 1337.47 466.28C1339.81 466.28 1342.03 465.693 1344.11 464.52C1346.24 463.347 1347.97 461.827 1349.31 459.96C1350.64 458.093 1351.31 456.093 1351.31 453.96ZM1370.78 457.16V432.52H1364.7C1364.54 432.093 1364.46 431.72 1364.46 431.4C1364.46 430.867 1364.62 430.333 1364.94 429.8L1370.78 429.08L1372.06 420.68C1372.49 420.573 1372.99 420.52 1373.58 420.52C1373.95 420.52 1374.46 420.573 1375.1 420.68V429H1386.14C1386.99 429 1387.42 429.373 1387.42 430.12C1387.42 430.44 1387.31 431 1387.1 431.8L1386.94 432.52H1375.1V455.56C1375.1 458.067 1375.23 460.093 1375.5 461.64C1375.82 463.133 1376.43 464.227 1377.34 464.92C1378.3 465.613 1379.77 465.96 1381.74 465.96C1382.7 465.96 1383.77 465.88 1384.94 465.72C1386.17 465.56 1387.37 465.32 1388.54 465C1389.02 465.853 1389.31 466.867 1389.42 468.04C1388.3 468.573 1386.94 469 1385.34 469.32C1383.74 469.64 1382.14 469.8 1380.54 469.8C1377.39 469.8 1374.97 468.893 1373.26 467.08C1371.61 465.267 1370.78 461.96 1370.78 457.16ZM1398.75 457.16V432.52H1392.67C1392.51 432.093 1392.43 431.72 1392.43 431.4C1392.43 430.867 1392.59 430.333 1392.91 429.8L1398.75 429.08L1400.03 420.68C1400.46 420.573 1400.96 420.52 1401.55 420.52C1401.92 420.52 1402.43 420.573 1403.07 420.68V429H1414.11C1414.96 429 1415.39 429.373 1415.39 430.12C1415.39 430.44 1415.28 431 1415.07 431.8L1414.91 432.52H1403.07V455.56C1403.07 458.067 1403.2 460.093 1403.47 461.64C1403.79 463.133 1404.4 464.227 1405.31 464.92C1406.27 465.613 1407.74 465.96 1409.71 465.96C1410.67 465.96 1411.74 465.88 1412.91 465.72C1414.14 465.56 1415.34 465.32 1416.51 465C1416.99 465.853 1417.28 466.867 1417.39 468.04C1416.27 468.573 1414.91 469 1413.31 469.32C1411.71 469.64 1410.11 469.8 1408.51 469.8C1405.36 469.8 1402.94 468.893 1401.23 467.08C1399.58 465.267 1398.75 461.96 1398.75 457.16ZM1452.13 448.12H1425.25V449C1425.25 454.173 1426.58 458.307 1429.25 461.4C1431.97 464.44 1435.59 465.96 1440.13 465.96C1442.21 465.96 1444.34 465.667 1446.53 465.08C1448.77 464.493 1450.58 463.827 1451.97 463.08C1452.39 463.507 1452.71 463.987 1452.93 464.52C1453.14 465 1453.27 465.507 1453.33 466.04C1448.9 468.547 1444.26 469.8 1439.41 469.8C1435.67 469.8 1432.42 468.947 1429.65 467.24C1426.87 465.48 1424.71 463.053 1423.17 459.96C1421.62 456.813 1420.85 453.16 1420.85 449C1420.85 444.787 1421.57 441.133 1423.01 438.04C1424.5 434.893 1426.61 432.467 1429.33 430.76C1432.05 429.053 1435.25 428.2 1438.93 428.2C1448.74 428.2 1453.65 434.04 1453.65 445.72C1453.22 446.627 1452.71 447.427 1452.13 448.12ZM1425.57 444.68H1449.41C1449.41 436.04 1445.91 431.72 1438.93 431.72C1435.41 431.72 1432.45 432.893 1430.05 435.24C1427.7 437.587 1426.21 440.733 1425.57 444.68ZM1479.41 469H1460.77C1460.61 468.573 1460.53 468.2 1460.53 467.88C1460.53 467.453 1460.69 466.947 1461.01 466.36L1466.45 465.72V432.76H1460.37C1460.21 432.387 1460.13 432.013 1460.13 431.64C1460.13 431.16 1460.29 430.653 1460.61 430.12L1468.53 428.6C1469.44 429.08 1470.18 429.667 1470.77 430.36L1469.73 440.12C1471.17 436.6 1473.17 433.8 1475.73 431.72C1478.29 429.587 1481.09 428.52 1484.13 428.52C1484.72 428.52 1485.38 428.573 1486.13 428.68C1486.93 428.733 1487.65 428.84 1488.29 429C1488.88 429.693 1489.38 430.493 1489.81 431.4L1489.97 440.12C1489.6 440.28 1489.2 440.36 1488.77 440.36C1488.24 440.36 1487.73 440.2 1487.25 439.88L1485.49 432.12C1485.28 432.067 1485.06 432.04 1484.85 432.04C1484.69 432.04 1484.53 432.04 1484.37 432.04C1482.08 432.04 1479.89 432.84 1477.81 434.44C1475.73 435.987 1474.02 438.04 1472.69 440.6C1471.41 443.107 1470.77 445.747 1470.77 448.52V465.56H1478.61C1479.46 465.56 1479.89 465.933 1479.89 466.68C1479.89 467 1479.78 467.56 1479.57 468.36L1479.41 469ZM1497.83 464.76L1497.67 456.04C1498.05 455.88 1498.45 455.8 1498.87 455.8C1499.41 455.8 1499.91 455.96 1500.39 456.28L1502.07 464.52C1504.69 465.693 1507.7 466.28 1511.11 466.28C1514.42 466.28 1517.03 465.587 1518.95 464.2C1520.87 462.813 1521.83 460.947 1521.83 458.6C1521.83 456.68 1521.09 455.053 1519.59 453.72C1518.15 452.387 1515.86 451.267 1512.71 450.36C1509.14 449.347 1506.31 448.307 1504.23 447.24C1502.15 446.12 1500.66 444.867 1499.75 443.48C1498.9 442.04 1498.47 440.333 1498.47 438.36C1498.47 435.213 1499.67 432.733 1502.07 430.92C1504.53 429.107 1507.86 428.2 1512.07 428.2C1513.99 428.2 1515.97 428.387 1517.99 428.76C1520.07 429.133 1521.62 429.613 1522.63 430.2C1523.22 430.893 1523.73 431.693 1524.15 432.6L1524.31 440.52C1523.89 440.68 1523.49 440.76 1523.11 440.76C1522.58 440.76 1522.07 440.6 1521.59 440.28L1519.91 432.92C1517.62 432.067 1515.09 431.64 1512.31 431.64C1505.97 431.64 1502.79 433.88 1502.79 438.36C1502.79 439.587 1503.09 440.653 1503.67 441.56C1504.31 442.413 1505.41 443.213 1506.95 443.96C1508.5 444.707 1510.63 445.507 1513.35 446.36C1517.83 447.693 1521.09 449.347 1523.11 451.32C1525.19 453.24 1526.23 455.667 1526.23 458.6C1526.23 462.067 1524.9 464.813 1522.23 466.84C1519.57 468.813 1515.86 469.8 1511.11 469.8C1508.87 469.8 1506.69 469.56 1504.55 469.08C1502.47 468.6 1500.74 467.96 1499.35 467.16C1498.77 466.467 1498.26 465.667 1497.83 464.76ZM1595.1 469.16L1583.5 436.52L1571.9 469.16C1571.47 469.267 1570.91 469.32 1570.22 469.32C1569.52 469.32 1568.96 469.267 1568.54 469.16L1556.7 432.44H1552.06C1551.2 432.44 1550.78 432.067 1550.78 431.32C1550.78 431 1550.88 430.44 1551.1 429.64L1551.26 429H1566.94C1567.1 429.427 1567.18 429.8 1567.18 430.12C1567.18 430.547 1567.02 431.053 1566.7 431.64L1561.26 432.28L1570.46 462.52L1582.06 429C1582.48 428.893 1583.04 428.84 1583.74 428.84C1584.43 428.84 1584.99 428.893 1585.42 429L1596.94 462.12L1606.14 432.44H1601.5C1600.64 432.44 1600.22 432.067 1600.22 431.32C1600.22 431 1600.32 430.44 1600.54 429.64L1600.7 429H1616.06C1616.22 429.427 1616.3 429.8 1616.3 430.12C1616.3 430.547 1616.14 431.053 1615.82 431.64L1610.38 432.28L1598.46 469.16C1598.03 469.267 1597.47 469.32 1596.78 469.32C1596.08 469.32 1595.52 469.267 1595.1 469.16ZM1636.46 469H1619.42C1619.26 468.573 1619.18 468.2 1619.18 467.88C1619.18 467.453 1619.34 466.947 1619.66 466.36L1625.9 465.72V432.76H1619.42C1619.26 432.387 1619.18 432.013 1619.18 431.64C1619.18 431.16 1619.34 430.653 1619.66 430.12L1627.98 428.6C1628.89 429.08 1629.64 429.667 1630.22 430.36V465.56H1635.66C1636.52 465.56 1636.94 465.933 1636.94 466.68C1636.94 467 1636.84 467.56 1636.62 468.36L1636.46 469ZM1630.46 418.44C1630.46 419.453 1630.14 420.28 1629.5 420.92C1628.86 421.507 1627.98 421.8 1626.86 421.8C1625.74 421.8 1624.86 421.507 1624.22 420.92C1623.58 420.28 1623.26 419.453 1623.26 418.44C1623.26 417.427 1623.58 416.627 1624.22 416.04C1624.86 415.4 1625.74 415.08 1626.86 415.08C1627.98 415.08 1628.86 415.4 1629.5 416.04C1630.14 416.627 1630.46 417.427 1630.46 418.44ZM1646.72 457.16V432.52H1640.64C1640.48 432.093 1640.4 431.72 1640.4 431.4C1640.4 430.867 1640.56 430.333 1640.88 429.8L1646.72 429.08L1648 420.68C1648.42 420.573 1648.93 420.52 1649.52 420.52C1649.89 420.52 1650.4 420.573 1651.04 420.68V429H1662.08C1662.93 429 1663.36 429.373 1663.36 430.12C1663.36 430.44 1663.25 431 1663.04 431.8L1662.88 432.52H1651.04V455.56C1651.04 458.067 1651.17 460.093 1651.44 461.64C1651.76 463.133 1652.37 464.227 1653.28 464.92C1654.24 465.613 1655.7 465.96 1657.68 465.96C1658.64 465.96 1659.7 465.88 1660.88 465.72C1662.1 465.56 1663.3 465.32 1664.48 465C1664.96 465.853 1665.25 466.867 1665.36 468.04C1664.24 468.573 1662.88 469 1661.28 469.32C1659.68 469.64 1658.08 469.8 1656.48 469.8C1653.33 469.8 1650.9 468.893 1649.2 467.08C1647.54 465.267 1646.72 461.96 1646.72 457.16ZM1714.13 469H1698.69C1698.53 468.573 1698.45 468.2 1698.45 467.88C1698.45 467.453 1698.61 466.947 1698.93 466.36L1704.37 465.72V443C1704.37 435.48 1701.19 431.72 1694.85 431.72C1692.34 431.72 1690.02 432.467 1687.89 433.96C1685.81 435.4 1684.13 437.347 1682.85 439.8C1681.57 442.2 1680.93 444.84 1680.93 447.72V465.56H1685.57C1686.42 465.56 1686.85 465.933 1686.85 466.68C1686.85 467 1686.74 467.56 1686.53 468.36L1686.37 469H1670.93C1670.77 468.573 1670.69 468.2 1670.69 467.88C1670.69 467.453 1670.85 466.947 1671.17 466.36L1676.61 465.72V419.16H1670.13C1669.97 418.787 1669.89 418.413 1669.89 418.04C1669.89 417.56 1670.05 417.053 1670.37 416.52L1678.69 415C1679.59 415.48 1680.34 416.067 1680.93 416.76V437.24C1682.26 434.733 1684.13 432.6 1686.53 430.84C1688.93 429.08 1691.94 428.2 1695.57 428.2C1699.83 428.2 1703.09 429.48 1705.33 432.04C1707.57 434.547 1708.69 438.2 1708.69 443V465.56H1713.33C1714.18 465.56 1714.61 465.933 1714.61 466.68C1714.61 467 1714.5 467.56 1714.29 468.36L1714.13 469ZM1780.38 467.88L1772.46 469.4C1771.56 468.92 1770.81 468.333 1770.22 467.64L1770.78 459.8C1769.4 462.84 1767.4 465.267 1764.78 467.08C1762.17 468.893 1759.29 469.8 1756.14 469.8C1753 469.8 1750.22 468.947 1747.82 467.24C1745.42 465.48 1743.53 463.08 1742.14 460.04C1740.81 456.947 1740.14 453.4 1740.14 449.4C1740.14 445.133 1740.92 441.427 1742.46 438.28C1744.01 435.08 1746.2 432.6 1749.02 430.84C1751.85 429.08 1755.16 428.2 1758.94 428.2C1763.1 428.2 1766.86 429.587 1770.22 432.36V419.16H1763.74C1763.58 418.787 1763.5 418.413 1763.5 418.04C1763.5 417.56 1763.66 417.053 1763.98 416.52L1772.3 415C1773.21 415.48 1773.96 416.067 1774.54 416.76V465.24H1780.62C1780.78 465.613 1780.86 465.987 1780.86 466.36C1780.86 466.84 1780.7 467.347 1780.38 467.88ZM1770.22 450.28V436.44C1766.65 433.347 1762.89 431.8 1758.94 431.8C1754.57 431.8 1751.1 433.373 1748.54 436.52C1745.98 439.667 1744.7 443.96 1744.7 449.4C1744.7 452.707 1745.21 455.64 1746.22 458.2C1747.24 460.707 1748.62 462.68 1750.38 464.12C1752.14 465.56 1754.2 466.28 1756.54 466.28C1759 466.28 1761.26 465.56 1763.34 464.12C1765.42 462.627 1767.08 460.68 1768.3 458.28C1769.58 455.827 1770.22 453.16 1770.22 450.28ZM1805.89 469H1787.25C1787.09 468.573 1787.01 468.2 1787.01 467.88C1787.01 467.453 1787.17 466.947 1787.49 466.36L1792.93 465.72V432.76H1786.85C1786.69 432.387 1786.61 432.013 1786.61 431.64C1786.61 431.16 1786.77 430.653 1787.09 430.12L1795.01 428.6C1795.92 429.08 1796.67 429.667 1797.25 430.36L1796.21 440.12C1797.65 436.6 1799.65 433.8 1802.21 431.72C1804.77 429.587 1807.57 428.52 1810.61 428.52C1811.2 428.52 1811.87 428.573 1812.61 428.68C1813.41 428.733 1814.13 428.84 1814.77 429C1815.36 429.693 1815.87 430.493 1816.29 431.4L1816.45 440.12C1816.08 440.28 1815.68 440.36 1815.25 440.36C1814.72 440.36 1814.21 440.2 1813.73 439.88L1811.97 432.12C1811.76 432.067 1811.55 432.04 1811.33 432.04C1811.17 432.04 1811.01 432.04 1810.85 432.04C1808.56 432.04 1806.37 432.84 1804.29 434.44C1802.21 435.987 1800.51 438.04 1799.17 440.6C1797.89 443.107 1797.25 445.747 1797.25 448.52V465.56H1805.09C1805.95 465.56 1806.37 465.933 1806.37 466.68C1806.37 467 1806.27 467.56 1806.05 468.36L1805.89 469ZM1857.56 467.88L1849.64 469.4C1848.73 468.92 1847.98 468.333 1847.4 467.64L1847.8 461.88C1846.09 464.387 1843.98 466.333 1841.48 467.72C1839.02 469.107 1836.3 469.8 1833.32 469.8C1829.64 469.8 1826.65 468.76 1824.36 466.68C1822.12 464.6 1821 461.907 1821 458.6C1821 454.813 1822.49 451.88 1825.48 449.8C1828.52 447.667 1832.78 446.6 1838.28 446.6C1839.5 446.6 1840.92 446.653 1842.52 446.76C1844.12 446.867 1845.8 447.053 1847.56 447.32V444.12C1847.56 435.907 1843.85 431.8 1836.44 431.8C1834.52 431.8 1832.46 432.147 1830.28 432.84C1828.14 433.48 1826.17 434.413 1824.36 435.64C1823.98 435.32 1823.64 434.867 1823.32 434.28C1823 433.64 1822.84 433.107 1822.84 432.68C1824.92 431.24 1827.13 430.147 1829.48 429.4C1831.88 428.6 1834.2 428.2 1836.44 428.2C1846.62 428.2 1851.72 433.507 1851.72 444.12V465.24H1857.8C1857.96 465.613 1858.04 465.987 1858.04 466.36C1858.04 466.84 1857.88 467.347 1857.56 467.88ZM1847.56 453.96V450.76C1845.85 450.547 1844.2 450.387 1842.6 450.28C1841 450.12 1839.56 450.04 1838.28 450.04C1834.06 450.04 1830.86 450.76 1828.68 452.2C1826.49 453.587 1825.4 455.667 1825.4 458.44C1825.4 460.787 1826.14 462.68 1827.64 464.12C1829.18 465.56 1831.21 466.28 1833.72 466.28C1836.06 466.28 1838.28 465.693 1840.36 464.52C1842.49 463.347 1844.22 461.827 1845.56 459.96C1846.89 458.093 1847.56 456.093 1847.56 453.96ZM1875.67 461.24H1884.79C1889.22 461.24 1892.71 462.2 1895.27 464.12C1897.88 466.04 1899.19 468.627 1899.19 471.88C1899.19 475.72 1897.46 478.787 1893.99 481.08C1890.52 483.427 1885.91 484.6 1880.15 484.6C1874.55 484.6 1870.15 483.56 1866.95 481.48C1863.75 479.4 1862.15 476.547 1862.15 472.92C1862.15 469.027 1864.47 465.747 1869.11 463.08C1867.78 462.013 1867.11 460.547 1867.11 458.68C1867.11 456.12 1868.42 453.693 1871.03 451.4C1868.1 448.947 1866.63 445.613 1866.63 441.4C1866.63 437.453 1867.91 434.28 1870.47 431.88C1873.08 429.427 1876.5 428.2 1880.71 428.2C1884.34 428.2 1887.35 429.107 1889.75 430.92L1898.31 429.88C1899.16 429.827 1899.59 430.2 1899.59 431C1899.59 431.32 1899.48 431.88 1899.27 432.68L1899.03 433.56H1892.39C1893.14 434.627 1893.72 435.827 1894.15 437.16C1894.58 438.44 1894.79 439.853 1894.79 441.4C1894.79 445.347 1893.48 448.547 1890.87 451C1888.31 453.4 1884.92 454.6 1880.71 454.6C1877.99 454.6 1875.56 454.067 1873.43 453C1871.94 454.333 1871.19 455.907 1871.19 457.72C1871.19 460.067 1872.68 461.24 1875.67 461.24ZM1884.79 464.76H1873.99C1873.24 464.76 1872.52 464.68 1871.83 464.52C1868.31 466.813 1866.55 469.533 1866.55 472.68C1866.55 475.24 1867.78 477.267 1870.23 478.76C1872.68 480.307 1875.99 481.08 1880.15 481.08C1884.58 481.08 1888.12 480.227 1890.79 478.52C1893.46 476.867 1894.79 474.653 1894.79 471.88C1894.79 469.64 1893.91 467.907 1892.15 466.68C1890.39 465.4 1887.94 464.76 1884.79 464.76ZM1890.71 441.4C1890.71 438.413 1889.8 436.04 1887.99 434.28C1886.18 432.52 1883.75 431.64 1880.71 431.64C1877.67 431.64 1875.24 432.52 1873.43 434.28C1871.62 436.04 1870.71 438.413 1870.71 441.4C1870.71 444.387 1871.62 446.76 1873.43 448.52C1875.24 450.28 1877.67 451.16 1880.71 451.16C1883.75 451.16 1886.18 450.28 1887.99 448.52C1889.8 446.76 1890.71 444.387 1890.71 441.4ZM1962.09 467.88L1954.17 469.4C1953.26 468.92 1952.51 468.333 1951.93 467.64L1952.33 461.88C1950.62 464.387 1948.51 466.333 1946.01 467.72C1943.55 469.107 1940.83 469.8 1937.85 469.8C1934.17 469.8 1931.18 468.76 1928.89 466.68C1926.65 464.6 1925.53 461.907 1925.53 458.6C1925.53 454.813 1927.02 451.88 1930.01 449.8C1933.05 447.667 1937.31 446.6 1942.81 446.6C1944.03 446.6 1945.45 446.653 1947.05 446.76C1948.65 446.867 1950.33 447.053 1952.09 447.32V444.12C1952.09 435.907 1948.38 431.8 1940.97 431.8C1939.05 431.8 1936.99 432.147 1934.81 432.84C1932.67 433.48 1930.7 434.413 1928.89 435.64C1928.51 435.32 1928.17 434.867 1927.85 434.28C1927.53 433.64 1927.37 433.107 1927.37 432.68C1929.45 431.24 1931.66 430.147 1934.01 429.4C1936.41 428.6 1938.73 428.2 1940.97 428.2C1951.15 428.2 1956.25 433.507 1956.25 444.12V465.24H1962.33C1962.49 465.613 1962.57 465.987 1962.57 466.36C1962.57 466.84 1962.41 467.347 1962.09 467.88ZM1952.09 453.96V450.76C1950.38 450.547 1948.73 450.387 1947.13 450.28C1945.53 450.12 1944.09 450.04 1942.81 450.04C1938.59 450.04 1935.39 450.76 1933.21 452.2C1931.02 453.587 1929.93 455.667 1929.93 458.44C1929.93 460.787 1930.67 462.68 1932.17 464.12C1933.71 465.56 1935.74 466.28 1938.25 466.28C1940.59 466.28 1942.81 465.693 1944.89 464.52C1947.02 463.347 1948.75 461.827 1950.09 459.96C1951.42 458.093 1952.09 456.093 1952.09 453.96ZM2011 469H1995.56C1995.4 468.573 1995.32 468.2 1995.32 467.88C1995.32 467.453 1995.48 466.947 1995.8 466.36L2001.24 465.72V443C2001.24 435.48 1998.07 431.72 1991.72 431.72C1989.21 431.72 1986.89 432.467 1984.76 433.96C1982.68 435.4 1981 437.347 1979.72 439.8C1978.44 442.2 1977.8 444.84 1977.8 447.72V465.56H1982.44C1983.29 465.56 1983.72 465.933 1983.72 466.68C1983.72 467 1983.61 467.56 1983.4 468.36L1983.24 469H1967.8C1967.64 468.573 1967.56 468.2 1967.56 467.88C1967.56 467.453 1967.72 466.947 1968.04 466.36L1973.48 465.72V432.76H1967.4C1967.24 432.387 1967.16 432.013 1967.16 431.64C1967.16 431.16 1967.32 430.653 1967.64 430.12L1975.56 428.6C1976.47 429.08 1977.21 429.667 1977.8 430.36L1977.24 438.36C1978.73 435.107 1980.79 432.6 1983.4 430.84C1986.01 429.08 1989.03 428.2 1992.44 428.2C1996.71 428.2 1999.96 429.48 2002.2 432.04C2004.44 434.547 2005.56 438.2 2005.56 443V465.56H2010.2C2011.05 465.56 2011.48 465.933 2011.48 466.68C2011.48 467 2011.37 467.56 2011.16 468.36L2011 469ZM2057.26 467.88L2049.34 469.4C2048.43 468.92 2047.68 468.333 2047.1 467.64L2047.66 459.8C2046.27 462.84 2044.27 465.267 2041.66 467.08C2039.04 468.893 2036.16 469.8 2033.02 469.8C2029.87 469.8 2027.1 468.947 2024.7 467.24C2022.3 465.48 2020.4 463.08 2019.02 460.04C2017.68 456.947 2017.02 453.4 2017.02 449.4C2017.02 445.133 2017.79 441.427 2019.34 438.28C2020.88 435.08 2023.07 432.6 2025.9 430.84C2028.72 429.08 2032.03 428.2 2035.82 428.2C2039.98 428.2 2043.74 429.587 2047.1 432.36V419.16H2040.62C2040.46 418.787 2040.38 418.413 2040.38 418.04C2040.38 417.56 2040.54 417.053 2040.86 416.52L2049.18 415C2050.08 415.48 2050.83 416.067 2051.42 416.76V465.24H2057.5C2057.66 465.613 2057.74 465.987 2057.74 466.36C2057.74 466.84 2057.58 467.347 2057.26 467.88ZM2047.1 450.28V436.44C2043.52 433.347 2039.76 431.8 2035.82 431.8C2031.44 431.8 2027.98 433.373 2025.42 436.52C2022.86 439.667 2021.58 443.96 2021.58 449.4C2021.58 452.707 2022.08 455.64 2023.1 458.2C2024.11 460.707 2025.5 462.68 2027.26 464.12C2029.02 465.56 2031.07 466.28 2033.42 466.28C2035.87 466.28 2038.14 465.56 2040.22 464.12C2042.3 462.627 2043.95 460.68 2045.18 458.28C2046.46 455.827 2047.1 453.16 2047.1 450.28ZM2124.29 467.88L2116.37 469.4C2115.46 468.92 2114.72 468.333 2114.13 467.64L2114.69 459.8C2113.3 462.84 2111.3 465.267 2108.69 467.08C2106.08 468.893 2103.2 469.8 2100.05 469.8C2096.9 469.8 2094.13 468.947 2091.73 467.24C2089.33 465.48 2087.44 463.08 2086.05 460.04C2084.72 456.947 2084.05 453.4 2084.05 449.4C2084.05 445.133 2084.82 441.427 2086.37 438.28C2087.92 435.08 2090.1 432.6 2092.93 430.84C2095.76 429.08 2099.06 428.2 2102.85 428.2C2107.01 428.2 2110.77 429.587 2114.13 432.36V419.16H2107.65C2107.49 418.787 2107.41 418.413 2107.41 418.04C2107.41 417.56 2107.57 417.053 2107.89 416.52L2116.21 415C2117.12 415.48 2117.86 416.067 2118.45 416.76V465.24H2124.53C2124.69 465.613 2124.77 465.987 2124.77 466.36C2124.77 466.84 2124.61 467.347 2124.29 467.88ZM2114.13 450.28V436.44C2110.56 433.347 2106.8 431.8 2102.85 431.8C2098.48 431.8 2095.01 433.373 2092.45 436.52C2089.89 439.667 2088.61 443.96 2088.61 449.4C2088.61 452.707 2089.12 455.64 2090.13 458.2C2091.14 460.707 2092.53 462.68 2094.29 464.12C2096.05 465.56 2098.1 466.28 2100.45 466.28C2102.9 466.28 2105.17 465.56 2107.25 464.12C2109.33 462.627 2110.98 460.68 2112.21 458.28C2113.49 455.827 2114.13 453.16 2114.13 450.28ZM2149.8 469H2131.16C2131 468.573 2130.92 468.2 2130.92 467.88C2130.92 467.453 2131.08 466.947 2131.4 466.36L2136.84 465.72V432.76H2130.76C2130.6 432.387 2130.52 432.013 2130.52 431.64C2130.52 431.16 2130.68 430.653 2131 430.12L2138.92 428.6C2139.83 429.08 2140.57 429.667 2141.16 430.36L2140.12 440.12C2141.56 436.6 2143.56 433.8 2146.12 431.72C2148.68 429.587 2151.48 428.52 2154.52 428.52C2155.11 428.52 2155.77 428.573 2156.52 428.68C2157.32 428.733 2158.04 428.84 2158.68 429C2159.27 429.693 2159.77 430.493 2160.2 431.4L2160.36 440.12C2159.99 440.28 2159.59 440.36 2159.16 440.36C2158.63 440.36 2158.12 440.2 2157.64 439.88L2155.88 432.12C2155.67 432.067 2155.45 432.04 2155.24 432.04C2155.08 432.04 2154.92 432.04 2154.76 432.04C2152.47 432.04 2150.28 432.84 2148.2 434.44C2146.12 435.987 2144.41 438.04 2143.08 440.6C2141.8 443.107 2141.16 445.747 2141.16 448.52V465.56H2149C2149.85 465.56 2150.28 465.933 2150.28 466.68C2150.28 467 2150.17 467.56 2149.96 468.36L2149.8 469ZM2183.7 466.28C2186.47 466.28 2188.9 465.56 2190.98 464.12C2193.11 462.68 2194.74 460.653 2195.86 458.04C2197.03 455.427 2197.62 452.413 2197.62 449C2197.62 445.587 2197.03 442.573 2195.86 439.96C2194.74 437.347 2193.11 435.32 2190.98 433.88C2188.9 432.44 2186.47 431.72 2183.7 431.72C2180.93 431.72 2178.47 432.44 2176.34 433.88C2174.26 435.32 2172.63 437.347 2171.46 439.96C2170.34 442.573 2169.78 445.587 2169.78 449C2169.78 452.413 2170.34 455.427 2171.46 458.04C2172.63 460.653 2174.26 462.68 2176.34 464.12C2178.42 465.56 2180.87 466.28 2183.7 466.28ZM2183.7 469.8C2179.97 469.8 2176.71 468.947 2173.94 467.24C2171.22 465.48 2169.09 463.053 2167.54 459.96C2165.99 456.813 2165.22 453.16 2165.22 449C2165.22 444.84 2165.99 441.213 2167.54 438.12C2169.09 434.973 2171.22 432.547 2173.94 430.84C2176.71 429.08 2179.97 428.2 2183.7 428.2C2187.43 428.2 2190.66 429.08 2193.38 430.84C2196.15 432.547 2198.31 434.973 2199.86 438.12C2201.41 441.213 2202.18 444.84 2202.18 449C2202.18 453.16 2201.41 456.813 2199.86 459.96C2198.31 463.053 2196.15 465.48 2193.38 467.24C2190.66 468.947 2187.43 469.8 2183.7 469.8ZM2227.77 483.8H2208.33C2208.17 483.427 2208.09 483.053 2208.09 482.68C2208.09 482.2 2208.25 481.693 2208.57 481.16L2214.01 480.52V434.04C2212.25 434.627 2210.68 435.267 2209.29 435.96C2208.54 435.053 2208.09 434.067 2207.93 433C2210.44 431.56 2213.4 430.413 2216.81 429.56C2220.22 428.653 2223.45 428.2 2226.49 428.2C2230.49 428.2 2233.98 429.08 2236.97 430.84C2240.01 432.547 2242.36 434.947 2244.01 438.04C2245.72 441.08 2246.57 444.653 2246.57 448.76C2246.57 452.92 2245.8 456.6 2244.25 459.8C2242.76 462.947 2240.65 465.4 2237.93 467.16C2235.26 468.92 2232.17 469.8 2228.65 469.8C2224.7 469.8 2221.26 468.733 2218.33 466.6V480.36H2226.97C2227.82 480.36 2228.25 480.733 2228.25 481.48C2228.25 481.8 2228.14 482.36 2227.93 483.16L2227.77 483.8ZM2218.33 432.84V462.44C2221.58 464.947 2225.02 466.2 2228.65 466.2C2231.32 466.2 2233.64 465.48 2235.61 464.04C2237.64 462.547 2239.21 460.52 2240.33 457.96C2241.45 455.347 2242.01 452.333 2242.01 448.92C2242.01 443.747 2240.57 439.613 2237.69 436.52C2234.81 433.373 2230.97 431.8 2226.17 431.8C2224.94 431.8 2223.66 431.907 2222.33 432.12C2221 432.28 2219.66 432.52 2218.33 432.84Z" fill="#2E60D6"/>
</svg>
